<svg xmlns="http://www.w3.org/2000/svg"  viewBox="0 0 64 64" width="512px" height="512px"><path fill="#ffeb9b" d="M41.226,1.434C25.59,4.366,20,9,20,9l3.636,0.252L15,15l1,3l4-3l1,2c0,0,6.298-5.712,8.499-6.771 c0.356-0.171,0.807-0.359,1.314-0.553L8,57.137h2.932L8.977,63l5.863-5.863c0.004-0.001,0.007-0.002,0.011-0.003l0.092,0 l0.013-0.027c37.995-9.772,37.997-24.403,37.997-26.355c0-2.932-3.909-5.863-3.909-5.863s5.576-3.43,8.795-8.795 C60.771,11.206,56.862-1.498,41.226,1.434z M43,34c-1.316,2.631-5.524,5.411-8,7c-3.338,2.142-9.338,4.16-15,6l5.893-13.061 C26.109,33.86,26.759,32.096,27,32c9.772-3.909,15-6,17-2C44.45,30.901,44,32,43,34z M50.998,14.138 c-0.266-0.106,0-0.977-0.6-0.977C49.46,15.066,47.879,16.989,47,18c-1.511,1.74-5,3-8,4c-2.179,0.726-6.843,2.287-9,3l8.356-17.46 c0.713-0.13,1.362-0.217,1.893-0.242c2.938-0.142,9.25-0.577,10.75,1.954c0,0-0.234-0.907,0-0.977 c0.843-0.255,1.954,2.051,1.954,2.932C52.953,12.087,51.816,14.465,50.998,14.138z"/><path fill="#efc88e" d="M15,57c0,0-2.125,0.684-0.672-1.299c1.331-1.816,3.189-3.169,5.335-3.848 c3.626-1.147,8.994-2.992,15.86-6.342c2.436-1.189,5.293-1.169,7.695,0.088C43.681,45.84,44,45.999,44,45.999C44,46,38,49,38,49 L15,57L15,57z"/><path fill="#8d6c9f" d="M6.664,50.636c-0.146,0-0.293-0.031-0.433-0.099l-1.803-0.866 c-0.498-0.239-0.708-0.837-0.468-1.334c0.239-0.498,0.838-0.707,1.334-0.469l1.803,0.866c0.498,0.239,0.708,0.837,0.468,1.334 C7.394,50.427,7.036,50.636,6.664,50.636z"/><path fill="#8d6c9f" d="M8.747,46.303c-0.146,0-0.293-0.031-0.433-0.099l-1.803-0.866 c-0.498-0.239-0.708-0.837-0.468-1.334c0.239-0.498,0.839-0.707,1.334-0.469l1.803,0.866c0.498,0.239,0.708,0.837,0.468,1.334 C9.477,46.094,9.119,46.303,8.747,46.303z"/><path fill="#8d6c9f" d="M10.829,41.97c-0.146,0-0.293-0.031-0.433-0.099l-1.802-0.866 c-0.498-0.239-0.708-0.837-0.468-1.335c0.24-0.497,0.839-0.707,1.334-0.468l1.802,0.866c0.498,0.239,0.708,0.837,0.468,1.335 C11.559,41.761,11.201,41.97,10.829,41.97z"/><path fill="#8d6c9f" d="M12.912,37.637c-0.146,0-0.293-0.031-0.433-0.099l-1.803-0.867 c-0.498-0.239-0.707-0.837-0.468-1.335c0.24-0.496,0.839-0.706,1.335-0.468l1.803,0.867c0.498,0.239,0.707,0.837,0.468,1.335 C13.642,37.428,13.284,37.637,12.912,37.637z"/><path fill="#8d6c9f" d="M14.995,33.303c-0.146,0-0.293-0.031-0.433-0.099l-1.803-0.866 c-0.498-0.239-0.708-0.837-0.468-1.334c0.239-0.498,0.838-0.708,1.334-0.469l1.803,0.866c0.498,0.239,0.708,0.837,0.468,1.334 C15.725,33.094,15.367,33.303,14.995,33.303z"/><path fill="#8d6c9f" d="M17.078,28.97c-0.146,0-0.293-0.031-0.433-0.099l-1.802-0.866 c-0.498-0.239-0.708-0.837-0.468-1.335c0.24-0.497,0.839-0.707,1.334-0.468l1.802,0.866c0.498,0.239,0.708,0.837,0.468,1.335 C17.807,28.761,17.45,28.97,17.078,28.97z"/><path fill="#8d6c9f" d="M19.161,24.637c-0.146,0-0.293-0.031-0.433-0.099l-1.803-0.866 c-0.498-0.239-0.708-0.837-0.468-1.334c0.24-0.498,0.839-0.708,1.334-0.469l1.803,0.866c0.498,0.239,0.708,0.837,0.468,1.334 C19.891,24.428,19.533,24.637,19.161,24.637z"/><g><path fill="#8d6c9f" d="M26,50.745c-0.409,0-0.792-0.252-0.94-0.658c-0.188-0.52,0.08-1.093,0.599-1.281 c2.342-0.852,4.527-1.762,6.494-2.707c0.498-0.238,1.095-0.029,1.334,0.469c0.239,0.497,0.03,1.095-0.468,1.334 c-2.026,0.974-4.272,1.91-6.677,2.783C26.229,50.726,26.113,50.745,26,50.745z"/></g><g><path fill="#8d6c9f" d="M19,53c-0.435,0-0.835-0.286-0.961-0.726c-0.152-0.531,0.156-1.084,0.687-1.236 c1.139-0.325,2.233-0.656,3.284-0.991c0.524-0.17,1.088,0.123,1.256,0.649s-0.123,1.089-0.649,1.257 c-1.069,0.341-2.183,0.678-3.342,1.009C19.183,52.987,19.09,53,19,53z"/></g><path fill="#8d6c9f" d="M8.977,64c-0.181,0-0.363-0.049-0.525-0.149c-0.395-0.244-0.569-0.727-0.423-1.167l1.516-4.547H8	c-0.344,0-0.664-0.177-0.847-0.468s-0.204-0.655-0.055-0.966L28.6,11.973c-2.165,1.55-5.548,4.517-6.928,5.768	c-0.231,0.211-0.548,0.301-0.856,0.242c-0.308-0.058-0.57-0.255-0.71-0.535l-0.464-0.929L16.6,18.8	c-0.257,0.193-0.592,0.253-0.898,0.154c-0.307-0.096-0.549-0.333-0.65-0.638l-1-3c-0.143-0.429,0.019-0.898,0.395-1.148l6.191-4.121	l-0.707-0.049c-0.408-0.028-0.757-0.303-0.882-0.691c-0.125-0.39-0.001-0.815,0.313-1.076c0.236-0.196,5.97-4.834,21.68-7.779l0,0	c9.954-1.868,14.617,2.414,16.509,5.133c2.414,3.47,2.896,8.105,1.146,11.023c-2.448,4.081-6.147,7.047-7.998,8.369	c1.289,1.19,3.255,3.396,3.255,5.774c0,5.211-3.765,18.289-38.588,27.283c-0.004,0.002-0.009,0.004-0.013,0.006l-5.667,5.667	C9.491,63.9,9.235,64,8.977,64z M9.59,56.137h1.341c0.321,0,0.624,0.154,0.811,0.415c0.188,0.261,0.239,0.597,0.138,0.901	l-0.615,1.845l2.869-2.868c0.12-0.12,0.269-0.208,0.432-0.255c0.027-0.007,0.055-0.014,0.083-0.02	c0.02-0.007,0.039-0.013,0.059-0.018c34.561-8.889,37.246-21.679,37.246-25.387c0-1.995-2.533-4.331-3.509-5.063	c-0.265-0.198-0.414-0.515-0.399-0.846c0.016-0.33,0.193-0.632,0.475-0.806c0.054-0.033,5.413-3.375,8.462-8.458	c1.142-1.902,1.153-5.652-1.073-8.852c-1.614-2.321-5.641-5.968-14.497-4.311c-9.537,1.788-15.288,4.23-18.248,5.801l0.542,0.037	c0.427,0.03,0.788,0.328,0.897,0.742c0.109,0.413-0.056,0.852-0.413,1.088l-8,5.325l0.319,0.958L19.4,14.2	c0.237-0.178,0.542-0.241,0.83-0.174c0.289,0.068,0.532,0.261,0.665,0.526l0.414,0.828c1.913-1.695,5.956-5.187,7.757-6.053	c0.375-0.181,0.853-0.38,1.389-0.586c0.38-0.148,0.815-0.045,1.093,0.256c0.278,0.302,0.343,0.741,0.166,1.111L9.59,56.137z M41.227,1.434h0.01H41.227z M20,48c-0.279,0-0.552-0.117-0.745-0.333c-0.264-0.295-0.33-0.718-0.167-1.078l5.893-13.062	c0.054-0.119,0.129-0.225,0.222-0.312c0.079-0.138,0.218-0.432,0.315-0.636c0.401-0.846,0.623-1.312,1.109-1.507	c10.224-4.091,15.854-6.343,18.267-1.52c0.675,1.351,0.072,2.75-1,4.895c-1.318,2.638-4.963,5.218-8.354,7.395	c-3.381,2.17-9.134,4.128-15.231,6.109C20.208,47.984,20.104,48,20,48z M26.727,34.523l-4.882,10.82	c5.003-1.656,9.836-3.401,12.616-5.186c1.913-1.228,6.396-4.104,7.646-6.605c0.847-1.692,1.233-2.638,1-3.105	c-1.513-3.023-5.85-1.471-15.481,2.38c-0.09,0.169-0.215,0.433-0.299,0.609C27.09,33.933,26.924,34.282,26.727,34.523z M25.549,33	c-0.001,0-0.001,0-0.002,0C25.547,33,25.548,33,25.549,33z M25.552,32.998c-0.001,0.001-0.002,0.001-0.003,0.001	C25.55,32.999,25.551,32.999,25.552,32.998z M30,26c-0.282,0-0.557-0.12-0.75-0.339c-0.265-0.301-0.325-0.731-0.151-1.093	l8.355-17.46c0.139-0.289,0.407-0.495,0.724-0.552c0.793-0.145,1.475-0.231,2.024-0.258l0.395-0.02	c3.671-0.187,7.625-0.235,9.893,1.128c0.071-0.038,0.145-0.066,0.218-0.089c0.278-0.085,0.836-0.157,1.458,0.306	c0.964,0.716,1.789,2.567,1.789,3.582c0,0.945-0.836,2.96-1.866,3.658c-0.636,0.431-1.188,0.312-1.46,0.202h-0.001	c-0.043-0.018-0.083-0.036-0.121-0.057c-0.865,1.381-1.921,2.692-2.75,3.646c-1.67,1.922-5.231,3.224-8.438,4.292l-2.196,0.733	c-2.308,0.771-5.228,1.745-6.806,2.268C30.211,25.983,30.105,26,30,26z M39.034,8.438l-7.116,14.87	c1.443-0.48,3.126-1.042,4.568-1.524l2.197-0.732c2.136-0.712,6.11-2.037,7.562-3.708c1.478-1.7,2.604-3.299,3.256-4.625	c0.169-0.341,0.517-0.558,0.897-0.558c0.289,0,0.711,0.074,1.029,0.443c0.275-0.489,0.525-1.125,0.525-1.398	c0-0.234-0.17-0.705-0.385-1.134c-0.059,0.041-0.121,0.075-0.188,0.104c-0.465,0.189-0.99,0.013-1.242-0.414	c-1.127-1.903-6.956-1.607-9.441-1.485l-0.398,0.021C39.948,8.313,39.524,8.361,39.034,8.438z"/></svg>