<svg xmlns="http://www.w3.org/2000/svg"  viewBox="0 0 72 72" width="512px" height="512px"><path d="M 36 12 C 22.745 12 12 22.745 12 36 C 12 49.255 22.745 60 36 60 C 49.255 60 60 49.255 60 36 C 60 22.745 49.255 12 36 12 z M 36 20 C 44.837 20 52 27.163 52 36 C 52 43.284178 47.128298 49.420174 40.46875 51.355469 C 40.198559 51.103128 39.941627 50.74363 39.953125 50.285156 C 39.980125 49.233156 39.953125 46.778953 39.953125 45.876953 C 39.953125 44.328953 38.972656 43.230469 38.972656 43.230469 C 38.972656 43.230469 46.654297 43.316141 46.654297 35.119141 C 46.654297 31.957141 45.003906 30.310547 45.003906 30.310547 C 45.003906 30.310547 45.872125 26.933953 44.703125 25.501953 C 43.393125 25.359953 41.046922 26.753297 40.044922 27.404297 C 40.044922 27.404297 38.457406 26.753906 35.816406 26.753906 C 33.175406 26.753906 31.587891 27.404297 31.587891 27.404297 C 30.586891 26.753297 28.239687 25.360953 26.929688 25.501953 C 25.760688 26.933953 26.628906 30.310547 26.628906 30.310547 C 26.628906 30.310547 24.974609 31.956141 24.974609 35.119141 C 24.974609 43.316141 32.65625 43.230469 32.65625 43.230469 C 32.65625 43.230469 31.782197 44.226723 31.693359 45.652344 C 31.180078 45.833418 30.48023 46.048828 29.8125 46.048828 C 28.2025 46.048828 26.978297 44.483766 26.529297 43.759766 C 26.086297 43.045766 25.178031 42.447266 24.332031 42.447266 C 23.775031 42.447266 23.503906 42.726922 23.503906 43.044922 C 23.503906 43.362922 24.285781 43.585781 24.800781 44.175781 C 25.887781 45.420781 25.866281 48.21875 29.738281 48.21875 C 30.196553 48.21875 31.021102 48.11542 31.677734 48.025391 C 31.674106 48.90409 31.663893 49.74536 31.677734 50.285156 C 31.688158 50.700354 31.476914 51.032045 31.236328 51.279297 C 24.726159 49.25177 20 43.177886 20 36 C 20 27.163 27.163 20 36 20 z"/></svg>