<svg xmlns="http://www.w3.org/2000/svg" xmlns:xlink="http://www.w3.org/1999/xlink" viewBox="0,0,256,256" width="480px" height="480px"><g transform=""><g fill-opacity="0" fill="#dddddd" fill-rule="nonzero" stroke="none" stroke-width="1" stroke-linecap="butt" stroke-linejoin="miter" stroke-miterlimit="10" stroke-dasharray="" stroke-dashoffset="0" font-family="none" font-weight="none" font-size="none" text-anchor="none" style="mix-blend-mode: normal"><path d="M0,256v-256h256v256z" id="bgRectangle"></path></g><g fill="none" fill-rule="none" stroke="none" stroke-width="1" stroke-linecap="butt" stroke-linejoin="miter" stroke-miterlimit="10" stroke-dasharray="" stroke-dashoffset="0" font-family="none" font-weight="none" font-size="none" text-anchor="none" style="mix-blend-mode: normal"><g transform="scale(5.33333,5.33333)"><path d="M4.868,43.303l2.694,-9.835c-1.662,-2.878 -2.536,-6.144 -2.535,-9.489c0.005,-10.465 8.521,-18.979 18.987,-18.979c5.079,0.002 9.845,1.979 13.43,5.566c3.584,3.588 5.558,8.356 5.556,13.428c-0.004,10.465 -8.522,18.98 -18.986,18.98c-0.001,0 0,0 0,0h-0.008c-3.177,-0.001 -6.3,-0.798 -9.073,-2.311z" fill="#ffffff" fill-rule="nonzero"></path><path d="M4.868,43.803c-0.132,0 -0.26,-0.052 -0.355,-0.148c-0.125,-0.127 -0.174,-0.312 -0.127,-0.483l2.639,-9.636c-1.636,-2.906 -2.499,-6.206 -2.497,-9.556c0.004,-10.742 8.745,-19.48 19.486,-19.48c5.21,0.002 10.105,2.031 13.784,5.713c3.679,3.683 5.704,8.577 5.702,13.781c-0.004,10.741 -8.746,19.48 -19.486,19.48c-3.189,-0.001 -6.344,-0.788 -9.144,-2.277l-9.875,2.589c-0.042,0.012 -0.084,0.017 -0.127,0.017z" fill="#ffffff" fill-rule="nonzero"></path><path d="M24.014,5c5.079,0.002 9.845,1.979 13.43,5.566c3.584,3.588 5.558,8.356 5.556,13.428c-0.004,10.465 -8.522,18.98 -18.986,18.98h-0.008c-3.177,-0.001 -6.3,-0.798 -9.073,-2.311l-10.065,2.64l2.694,-9.835c-1.662,-2.878 -2.536,-6.144 -2.535,-9.489c0.005,-10.465 8.521,-18.979 18.987,-18.979M24.014,42.974v0v0M24.014,42.974v0v0M24.014,4v0c-11.016,0 -19.982,8.962 -19.987,19.979c-0.001,3.367 0.849,6.685 2.461,9.622l-2.585,9.439c-0.094,0.345 0.002,0.713 0.254,0.967c0.19,0.192 0.447,0.297 0.711,0.297c0.085,0 0.17,-0.011 0.254,-0.033l9.687,-2.54c2.828,1.468 5.998,2.243 9.197,2.244c11.024,0 19.99,-8.963 19.995,-19.98c0.002,-5.339 -2.075,-10.359 -5.848,-14.135c-3.775,-3.777 -8.796,-5.858 -14.139,-5.86z" fill="#cfd8dc" fill-rule="nonzero"></path><path d="M35.176,12.832c-2.98,-2.982 -6.941,-4.625 -11.157,-4.626c-8.704,0 -15.783,7.076 -15.787,15.774c-0.001,2.981 0.833,5.883 2.413,8.396l0.376,0.597l-1.595,5.821l5.973,-1.566l0.577,0.342c2.422,1.438 5.2,2.198 8.032,2.199h0.006c8.698,0 15.777,-7.077 15.78,-15.776c0.001,-4.215 -1.638,-8.179 -4.618,-11.161z" fill="#40c351" fill-rule="nonzero"></path><path d="M19.268,16.045c-0.355,-0.79 -0.729,-0.806 -1.068,-0.82c-0.277,-0.012 -0.593,-0.011 -0.909,-0.011c-0.316,0 -0.83,0.119 -1.265,0.594c-0.435,0.475 -1.661,1.622 -1.661,3.956c0,2.334 1.7,4.59 1.937,4.906c0.237,0.316 3.282,5.259 8.104,7.161c4.007,1.58 4.823,1.266 5.693,1.187c0.87,-0.079 2.807,-1.147 3.202,-2.255c0.395,-1.108 0.395,-2.057 0.277,-2.255c-0.119,-0.198 -0.435,-0.316 -0.909,-0.554c-0.474,-0.238 -2.807,-1.385 -3.242,-1.543c-0.435,-0.158 -0.751,-0.237 -1.068,0.238c-0.316,0.474 -1.225,1.543 -1.502,1.859c-0.277,0.317 -0.554,0.357 -1.028,0.119c-0.474,-0.238 -2.002,-0.738 -3.815,-2.354c-1.41,-1.257 -2.362,-2.81 -2.639,-3.285c-0.277,-0.474 -0.03,-0.731 0.208,-0.968c0.213,-0.213 0.474,-0.554 0.712,-0.831c0.237,-0.277 0.316,-0.475 0.474,-0.791c0.158,-0.317 0.079,-0.594 -0.04,-0.831c-0.117,-0.238 -1.039,-2.584 -1.461,-3.522z" fill="#ffffff" fill-rule="evenodd"></path></g></g></g></svg>