<svg class="animated" id="freepik_stories-online" xmlns="http://www.w3.org/2000/svg" viewBox="0 0 500 500" version="1.1" xmlns:xlink="http://www.w3.org/1999/xlink" xmlns:svgjs="http://svgjs.com/svgjs"><style>svg#freepik_stories-online:not(.animated) .animable {opacity: 0;}svg#freepik_stories-online.animated #freepik--Floor--inject-7 {animation: 1s 1 forwards cubic-bezier(.36,-0.01,.5,1.38) lightSpeedRight;animation-delay: 0s;}svg#freepik_stories-online.animated #freepik--Shadows--inject-7 {animation: 1s 1 forwards cubic-bezier(.36,-0.01,.5,1.38) lightSpeedRight;animation-delay: 0s;}svg#freepik_stories-online.animated #freepik--Device--inject-7 {animation: 1s 1 forwards cubic-bezier(.36,-0.01,.5,1.38) slideDown;animation-delay: 0s;}svg#freepik_stories-online.animated #freepik--Plants--inject-7 {animation: 1s 1 forwards cubic-bezier(.36,-0.01,.5,1.38) zoomOut;animation-delay: 0s;}svg#freepik_stories-online.animated #freepik--WiFi--inject-7 {animation: 1s 1 forwards cubic-bezier(.36,-0.01,.5,1.38) zoomOut;animation-delay: 0s;}svg#freepik_stories-online.animated #freepik--social-media--inject-7 {animation: 1s 1 forwards cubic-bezier(.36,-0.01,.5,1.38) slideRight;animation-delay: 0s;}svg#freepik_stories-online.animated #freepik--Character--inject-7 {animation: 1s 1 forwards cubic-bezier(.36,-0.01,.5,1.38) zoomIn;animation-delay: 0s;}            @keyframes lightSpeedRight {              from {                transform: translate3d(50%, 0, 0) skewX(-20deg);                opacity: 0;              }              60% {                transform: skewX(10deg);                opacity: 1;              }              80% {                transform: skewX(-2deg);              }              to {                opacity: 1;                transform: translate3d(0, 0, 0);              }            }                    @keyframes slideDown {                0% {                    opacity: 0;                    transform: translateY(-30px);                }                100% {                    opacity: 1;                    transform: translateY(0);                }            }                    @keyframes zoomOut {                0% {                    opacity: 0;                    transform: scale(1.5);                }                100% {                    opacity: 1;                    transform: scale(1);                }            }                    @keyframes slideRight {                0% {                    opacity: 0;                    transform: translateX(30px);                }                100% {                    opacity: 1;                    transform: translateX(0);                }            }                    @keyframes zoomIn {                0% {                    opacity: 0;                    transform: scale(0.5);                }                100% {                    opacity: 1;                    transform: scale(1);                }            }        </style><g id="freepik--Floor--inject-7" class="animable" style="transform-origin: 251.12px 335.56px;"><ellipse id="freepik--floor--inject-7" cx="251.12" cy="335.56" rx="238.53" ry="140.13" style="fill: rgb(245, 245, 245); transform-origin: 251.12px 335.56px;" class="animable"></ellipse></g><g id="freepik--Shadows--inject-7" class="animable" style="transform-origin: 248.254px 331.275px;"><path id="freepik--Shadow--inject-7" d="M33.71,371.61,178.4,455.14a13.2,13.2,0,0,0,11.93,0L462.79,297.83c3.3-1.9,3.3-5,0-6.88L318.11,207.41a13.2,13.2,0,0,0-11.93,0L33.71,364.72C30.42,366.62,30.42,369.71,33.71,371.61Z" style="fill: rgb(224, 224, 224); transform-origin: 248.254px 331.275px;" class="animable"></path><g id="freepik--shadow--inject-7"><ellipse cx="292" cy="246.5" rx="29" ry="16.74" style="opacity: 0.1; transform-origin: 292px 246.5px;" class="animable"></ellipse></g></g><g id="freepik--Device--inject-7" class="animable" style="transform-origin: 245.005px 318.643px;"><g id="freepik--Mobile--inject-7" class="animable" style="transform-origin: 245.005px 318.643px;"><g id="freepik--device--inject-7" class="animable" style="transform-origin: 245.005px 318.643px;"><path d="M43.38,342.79c-2,1.57-1.81,3.8.65,5.21l134.72,77.79a10.88,10.88,0,0,0,9.8,0L446,277.14c2.49-1.44,2.7-3.71.58-5.28a11,11,0,0,1,4.32,8.11v6.48a10.78,10.78,0,0,1-4.9,8.49L188.57,443.58a10.8,10.8,0,0,1-9.81,0L44,365.81a10.8,10.8,0,0,1-4.9-8.49l0-6.49A10.93,10.93,0,0,1,43.38,342.79Z" style="fill: rgb(38, 50, 56); transform-origin: 245px 358.309px;" id="elbgiuy76fpmc" class="animable"></path><path d="M44,348l134.72,77.79a10.88,10.88,0,0,0,9.8,0L446,277.14c2.71-1.56,2.71-4.1,0-5.65l-134.72-77.8a10.86,10.86,0,0,0-9.79,0L44,342.35C41.33,343.91,41.32,346.45,44,348ZM280.78,213.81c2.31-1.34,4.72-.57,7,.78l122.5,70.73c2.31,1.33,2.32,3.5,0,4.85L209.86,405.9a9.33,9.33,0,0,1-8.41,0L79,335.17c-2.33-1.34-2.33-3.51,0-4.84Z" style="fill: rgb(69, 90, 100); transform-origin: 245.013px 309.74px;" id="el05dw87qeg2yr" class="animable"></path><path d="M446.59,271.86a11,11,0,0,1,4.32,8.11v6.48a10.79,10.79,0,0,1-4.9,8.49L188.57,443.58a10,10,0,0,1-4.92,1.18V427a10,10,0,0,0,4.91-1.17L446,277.14C448.5,275.7,448.71,273.43,446.59,271.86Z" style="fill: rgb(55, 71, 79); transform-origin: 317.28px 358.311px;" id="el17ramr19jdm" class="animable"></path><path d="M365.73,240.23c-1.81-1-1.81-2.75,0-3.79a7.25,7.25,0,0,1,6.57,0c1.82,1,1.82,2.74,0,3.79A7.25,7.25,0,0,1,365.73,240.23Z" id="elp3egvhwl3v" class="animable" style="transform-origin: 369.019px 238.335px;"></path><path d="M124.12,385a16.5,16.5,0,0,1-8.06-1.92h0c-2.27-1.32-3.52-3.1-3.52-5s1.25-3.7,3.52-5c4.44-2.56,11.67-2.56,16.11,0,2.28,1.32,3.53,3.1,3.53,5s-1.25,3.71-3.53,5A16.49,16.49,0,0,1,124.12,385Zm0-12.62a15.19,15.19,0,0,0-7.42,1.77c-1.85,1.07-2.88,2.46-2.88,3.9s1,2.84,2.88,3.91h0a16.42,16.42,0,0,0,14.83,0c1.86-1.07,2.88-2.46,2.88-3.91s-1-2.83-2.88-3.9A15.15,15.15,0,0,0,124.12,372.34Z" style="fill: rgb(230, 230, 230); transform-origin: 124.12px 378.082px;" id="elwr6wisxhty" class="animable"></path><path d="M369,252.81l-25.35-14.64c-1.52-.87-1.59-2.25-.17-3.07a5.92,5.92,0,0,1,5.31.1l25.36,14.64c1.51.88,1.58,2.25.16,3.07A5.89,5.89,0,0,1,369,252.81Z" id="elikh1p810akp" class="animable" style="transform-origin: 358.896px 244.007px;"></path><path d="M280.78,213.81c2.31-1.34,4.72-.57,7,.78l122.5,70.73c2.31,1.33,2.32,3.5,0,4.85L209.86,405.9a9.33,9.33,0,0,1-8.41,0L79,335.17c-2.33-1.34-2.33-3.51,0-4.84Z" style="fill: rgb(33, 103, 233); transform-origin: 244.634px 310.006px;" id="elwc7g27evzk" class="animable"></path></g></g></g><g id="freepik--Plants--inject-7" class="animable" style="transform-origin: 292.403px 148.679px;"><g id="freepik--Tree--inject-7" class="animable" style="transform-origin: 292.403px 148.679px;"><g id="el1ky9qca3prv"><rect x="282.9" y="138.28" width="2.85" height="34.86" style="fill: rgb(55, 71, 79); transform-origin: 284.325px 155.71px; transform: rotate(-26.91deg);" class="animable"></rect></g><g id="elvzxrtx1n9wo"><rect x="285.89" y="148.79" width="29.24" height="2.85" style="fill: rgb(55, 71, 79); transform-origin: 300.51px 150.215px; transform: rotate(-58.24deg);" class="animable"></rect></g><path d="M289.83,134.08v112.5a1.2,1.2,0,0,0,.7,1,3.77,3.77,0,0,0,3.37,0,1.18,1.18,0,0,0,.7-1V134.08Z" style="fill: rgb(55, 71, 79); transform-origin: 292.215px 191.029px;" id="eljbq1mv8pto" class="animable"></path><g id="elmzb01xe7eyr"><circle cx="260.57" cy="118.18" r="27.37" style="fill: rgb(33, 103, 233); transform-origin: 260.57px 118.18px; transform: rotate(-82.98deg);" class="animable"></circle></g><g id="elztsq3m6m4bf"><path d="M251.6,121.38c-7.86-13.45-5.59-24.4-4.52-27,1.74-4.23,8.58-3.55,13.49-3.55a27.37,27.37,0,1,1-21.12,44.79C247.56,138,259.23,134.44,251.6,121.38Z" style="opacity: 0.15; transform-origin: 263.69px 118.18px;" class="animable"></path></g><g id="elcngl5vp73yi"><circle cx="322.8" cy="120.61" r="24.45" style="fill: rgb(33, 103, 233); transform-origin: 322.8px 120.61px; transform: rotate(-22.5deg);" class="animable"></circle></g><g id="elwecjqhnj6xp"><path d="M322.8,96.16a24.35,24.35,0,0,1,14.29,4.61c.66,14.94-12,29.5-8.48,34.4s12.28,1.89,15.32-2.27A24.45,24.45,0,1,1,322.8,96.16Z" style="opacity: 0.15; transform-origin: 321.137px 120.61px;" class="animable"></path></g><circle cx="292.22" cy="94.24" r="44.86" style="fill: rgb(33, 103, 233); transform-origin: 292.22px 94.24px;" id="elrh1fszo7hb" class="animable"></circle><g id="eljvvojxmgi5c"><path d="M324.8,63.43A45.32,45.32,0,0,1,326,73.66c0,24.78-12.39,51.27-45.5,51.27-12.83,0-28-8.32-31.93-20.44a44.79,44.79,0,0,0,4.83,12.19h0c.31.52.62,1,1,1.55l0,.07a44.6,44.6,0,0,0,5.52,7l.24.26c.33.34.68.68,1,1l.4.38c.33.31.67.61,1,.91l.47.41c.33.29.67.57,1,.85l.5.39,1.06.82.3.21c.74.54,1.49,1.05,2.26,1.54l.58.37c.32.2.65.38,1,.57l.78.45.95.51.85.44.95.45.91.41.94.41,1,.39c.3.12.6.24.9.34l1.31.45,1.17.36c.45.13.9.27,1.36.39l.88.21,1.14.26.94.19,1.12.2,1,.15,1.14.14,1,.11,1.22.09.91.06,1.61,0h.51A44.84,44.84,0,0,0,324.8,63.43Z" style="opacity: 0.1; transform-origin: 292.787px 101.225px;" class="animable"></path></g></g></g><g id="freepik--WiFi--inject-7" class="animable" style="transform-origin: 150.726px 119.61px;"><g id="freepik--wifi--inject-7" class="animable" style="transform-origin: 150.726px 119.61px;"><path d="M157.88,125.67a4.18,4.18,0,0,0-4.26-.28c-4,1.75-7.5,8-7.76,14.06-.16,3.58.86,6.25,2.55,7.46l4.4,3.17a4.15,4.15,0,0,0,4.23.26c4-1.74,7.5-8,7.77-14.06.15-3.55-.85-6.21-2.52-7.43Z" style="fill: rgb(33, 103, 233); transform-origin: 155.334px 137.867px;" id="elswec2yxq4jj" class="animable"></path><g id="eldy66v7odqw6"><path d="M157.88,125.67a4.18,4.18,0,0,0-4.26-.28c-4,1.75-7.5,8-7.76,14.06-.16,3.58.86,6.25,2.55,7.46l4.4,3.17a4.15,4.15,0,0,0,4.23.26c4-1.74,7.5-8,7.77-14.06.15-3.55-.85-6.21-2.52-7.43Z" style="opacity: 0.3; transform-origin: 155.334px 137.867px;" class="animable"></path></g><path d="M163.27,109.82c-3-2.18-6.9-2.57-11.19-.71-7.34,3.17-14,12.1-17.62,22.54-.73,2.12-.5,4.26.54,5.07h0c1.22.94,3.32,2.33,4.36,3.13h0c1.32,1,3.38-.46,4.3-3.14,2.54-7.39,7.24-13.69,12.4-15.92a8.5,8.5,0,0,1,5.49-.62,13.23,13.23,0,0,1,1.59,3.07,2.13,2.13,0,0,0,.72,1l4.39,3.16c.94.67,2.36.09,3.46-1.59v0a7.11,7.11,0,0,0,1-5.72,15,15,0,0,0-5-7.12Z" style="fill: rgb(33, 103, 233); transform-origin: 153.481px 124.044px;" id="elzof6qo1p4u" class="animable"></path><g id="els7fkjxq8do7"><path d="M163.27,109.82c-3-2.18-6.9-2.57-11.19-.71-7.34,3.17-14,12.1-17.62,22.54-.73,2.12-.5,4.26.54,5.07h0c1.22.94,3.32,2.33,4.36,3.13h0c1.32,1,3.38-.46,4.3-3.14,2.54-7.39,7.24-13.69,12.4-15.92a8.5,8.5,0,0,1,5.49-.62,13.23,13.23,0,0,1,1.59,3.07,2.13,2.13,0,0,0,.72,1l4.39,3.16c.94.67,2.36.09,3.46-1.59v0a7.11,7.11,0,0,0,1-5.72,15,15,0,0,0-5-7.12Z" style="opacity: 0.3; transform-origin: 153.481px 124.044px;" class="animable"></path></g><path d="M180.26,103.77a22.45,22.45,0,0,0-7-8.9c-.75-.55-3.72-2.68-4.45-3.2-4.89-3.52-13.05-4.44-20-1.46-12.19,5.29-20.14,13-27.49,31.41-.89,2.24-.55,4.53.57,5.41l.91.7c1.27,1,3.24,2.25,4.36,3.13l0,0c1.27,1,3.22-.38,4.22-2.92,4.92-12.46,14.43-21.92,23.35-25.78,4.61-2,8.85-2,12.42-.36a20.15,20.15,0,0,1,3.69,5.53,2.15,2.15,0,0,0,.68.86c.64.45,4.1,3,4.36,3.14.95.68,2.36.13,3.46-1.55C180.64,107.9,181,105.32,180.26,103.77Z" style="fill: rgb(33, 103, 233); transform-origin: 150.726px 109.805px;" id="el6995ohzc1ko" class="animable"></path><g id="el3ssvd808rai"><path d="M180.26,103.77a22.45,22.45,0,0,0-7-8.9c-.75-.55-3.72-2.68-4.45-3.2-4.89-3.52-13.05-4.44-20-1.46-12.19,5.29-20.14,13-27.49,31.41-.89,2.24-.55,4.53.57,5.41l.91.7c1.27,1,3.24,2.25,4.36,3.13l0,0c1.27,1,3.22-.38,4.22-2.92,4.92-12.46,14.43-21.92,23.35-25.78,4.61-2,8.85-2,12.42-.36a20.15,20.15,0,0,1,3.69,5.53,2.15,2.15,0,0,0,.68.86c.64.45,4.1,3,4.36,3.14.95.68,2.36.13,3.46-1.55C180.64,107.9,181,105.32,180.26,103.77Z" style="opacity: 0.3; transform-origin: 150.726px 109.805px;" class="animable"></path></g><path d="M164.81,136.28c-.27,6-3.74,12.32-7.77,14.06s-7.07-1.72-6.81-7.74S154,130.28,158,128.54,165.07,130.26,164.81,136.28Z" style="fill: rgb(33, 103, 233); transform-origin: 157.52px 139.44px;" id="elkla933gcdzm" class="animable"></path><path d="M156.45,112.25c-7.34,3.18-14,12.1-17.61,22.55-.74,2.11-.51,4.26.53,5.06h0c1.32,1,3.38-.46,4.3-3.14,2.54-7.39,7.24-13.69,12.4-15.92s9.48.16,11.45,5.59c.72,2,2.74,1.7,4.2-.53v0a7.11,7.11,0,0,0,1-5.72C169.91,112.47,163.8,109.07,156.45,112.25Z" style="fill: rgb(33, 103, 233); transform-origin: 155.672px 125.619px;" id="elcf1pmin9rdb" class="animable"></path><path d="M154.17,93.62c-8,3.2-13.49,7.25-18.15,13.1a62.17,62.17,0,0,0-9.76,17.9c-.83,2.26-1.27,4.66.94,6.24l0,0c1.27,1,3.22-.38,4.22-2.92,4.92-12.46,14.43-21.92,23.35-25.78s16.49-.28,20.48,8.31c.82,1.76,2.72,1.46,4.13-.69h0c1.24-1.9,1.58-4.48.86-6C175.36,93.28,164.55,89.47,154.17,93.62Z" style="fill: rgb(33, 103, 233); transform-origin: 153.098px 111.581px;" id="eliqie7ovzscd" class="animable"></path></g></g><g id="freepik--social-media--inject-7" class="animable" style="transform-origin: 407.55px 133.865px;"><g id="freepik--social-icons--inject-7" class="animable" style="transform-origin: 407.55px 133.865px;"><path d="M422.3,67.86,401.75,56a7,7,0,0,0-6.38,0l-2.6,1.5A7,7,0,0,0,389.58,63V86.75a7.06,7.06,0,0,0,3.19,5.53l20.55,11.86a7,7,0,0,0,6.38,0l2.6-1.5a7.06,7.06,0,0,0,3.19-5.52V73.39A7.06,7.06,0,0,0,422.3,67.86Z" style="fill: rgb(33, 103, 233); transform-origin: 407.535px 80.07px;" id="elbenrzeztm9h" class="animable"></path><g id="elco3vtes4ojo"><path d="M422.3,67.86,401.75,56a7,7,0,0,0-6.38,0l-2.6,1.5A7,7,0,0,0,389.58,63V86.75a7.06,7.06,0,0,0,3.19,5.53l20.55,11.86a7,7,0,0,0,6.38,0l2.6-1.5a7.06,7.06,0,0,0,3.19-5.52V73.39A7.06,7.06,0,0,0,422.3,67.86Z" style="fill: rgb(255, 255, 255); opacity: 0.8; transform-origin: 407.535px 80.07px;" class="animable"></path></g><path d="M413.32,73,392.77,61.18c-1.76-1-3.19-.19-3.19,1.84V86.75a7.06,7.06,0,0,0,3.19,5.53l20.55,11.86c1.76,1,3.19.19,3.19-1.84V78.57A7.08,7.08,0,0,0,413.32,73Z" style="fill: rgb(33, 103, 233); transform-origin: 403.045px 82.66px;" id="el9it35d1qvaq" class="animable"></path><g id="elg18c1fl4jha"><path d="M413.32,73,392.77,61.18c-1.76-1-3.19-.19-3.19,1.84V86.75a7.06,7.06,0,0,0,3.19,5.53l20.55,11.86c1.76,1,3.19.19,3.19-1.84V78.57A7.08,7.08,0,0,0,413.32,73Z" style="fill: rgb(255, 255, 255); opacity: 0.7; transform-origin: 403.045px 82.66px;" class="animable"></path></g><path d="M425.49,97.12a7.06,7.06,0,0,1-3.19,5.52l-2.6,1.5a7.15,7.15,0,0,1-5.84.26c1.51.57,2.65-.28,2.65-2.1V78.57a6.57,6.57,0,0,0-.93-3.14l9-5.19a6.51,6.51,0,0,1,.94,3.15Z" style="fill: rgb(33, 103, 233); transform-origin: 419.69px 87.5706px;" id="ele0k9zy6l4op" class="animable"></path><g id="elbvudug58ums"><path d="M425.49,97.12a7.06,7.06,0,0,1-3.19,5.52l-2.6,1.5a7.15,7.15,0,0,1-5.84.26c1.51.57,2.65-.28,2.65-2.1V78.57a6.57,6.57,0,0,0-.93-3.14l9-5.19a6.51,6.51,0,0,1,.94,3.15Z" style="fill: rgb(255, 255, 255); opacity: 0.55; transform-origin: 419.69px 87.5706px;" class="animable"></path></g><path d="M407.53,89.33C409,87.68,409.69,85,409.59,82a3.8,3.8,0,0,0,1.69-1.36,4.91,4.91,0,0,1-1.94-.41,2.1,2.1,0,0,0,1.48-1.64,4.19,4.19,0,0,1-2.14-.14,6.85,6.85,0,0,0-2.47-2.85c-2.18-1.26-3.78.53-3.29,3.63a20.37,20.37,0,0,1-7-8.72c-.89,1.51-.46,4.41,1,6.61a5.9,5.9,0,0,1-1.53-1.44,8.52,8.52,0,0,0,2.71,6,3.78,3.78,0,0,1-1.52-.81,7.9,7.9,0,0,0,3.15,4.95c-1.42.67-3.21.3-5-1a16.93,16.93,0,0,0,5.18,5c3.34,1.93,5.91,1.41,7.54-.48" style="fill: rgb(255, 255, 255); transform-origin: 403.005px 80.7734px;" id="elthbzyln47nh" class="animable"></path><path d="M422.3,121.66,401.75,109.8a7,7,0,0,0-6.38,0l-2.6,1.49a7.08,7.08,0,0,0-3.19,5.53v23.73a7,7,0,0,0,3.19,5.52l20.55,11.87a7,7,0,0,0,6.38,0l2.6-1.5a7.06,7.06,0,0,0,3.19-5.53V127.19A7.06,7.06,0,0,0,422.3,121.66Z" style="fill: rgb(33, 103, 233); transform-origin: 407.535px 133.87px;" id="el0v41s3cas6xb" class="animable"></path><g id="elynoa6rei58g"><path d="M422.3,121.66,401.75,109.8a7,7,0,0,0-6.38,0l-2.6,1.49a7.08,7.08,0,0,0-3.19,5.53v23.73a7,7,0,0,0,3.19,5.52l20.55,11.87a7,7,0,0,0,6.38,0l2.6-1.5a7.06,7.06,0,0,0,3.19-5.53V127.19A7.06,7.06,0,0,0,422.3,121.66Z" style="fill: rgb(255, 255, 255); opacity: 0.8; transform-origin: 407.535px 133.87px;" class="animable"></path></g><path d="M389.58,116.82c0-2,1.43-2.86,3.19-1.84l20.55,11.86a7.06,7.06,0,0,1,3.19,5.53V156.1c0,2-1.43,2.86-3.19,1.84l-20.55-11.87a7,7,0,0,1-3.19-5.52Z" style="fill: rgb(33, 103, 233); transform-origin: 403.045px 136.46px;" id="el2lhp1ajveh2" class="animable"></path><g id="el5vesdw4nw39"><path d="M389.58,116.82c0-2,1.43-2.86,3.19-1.84l20.55,11.86a7.06,7.06,0,0,1,3.19,5.53V156.1c0,2-1.43,2.86-3.19,1.84l-20.55-11.87a7,7,0,0,1-3.19-5.52Z" style="fill: rgb(255, 255, 255); opacity: 0.7; transform-origin: 403.045px 136.46px;" class="animable"></path></g><path d="M425.49,150.91a7.06,7.06,0,0,1-3.19,5.53l-2.6,1.5a7.15,7.15,0,0,1-5.84.26c1.51.56,2.65-.28,2.65-2.1V132.37a6.61,6.61,0,0,0-.93-3.15l9-5.18a6.51,6.51,0,0,1,.94,3.15Z" style="fill: rgb(33, 103, 233); transform-origin: 419.69px 141.371px;" id="elrwtmdjqehyi" class="animable"></path><g id="elxp0a5l3ywgp"><path d="M425.49,150.91a7.06,7.06,0,0,1-3.19,5.53l-2.6,1.5a7.15,7.15,0,0,1-5.84.26c1.51.56,2.65-.28,2.65-2.1V132.37a6.61,6.61,0,0,0-.93-3.15l9-5.18a6.51,6.51,0,0,1,.94,3.15Z" style="fill: rgb(255, 255, 255); opacity: 0.55; transform-origin: 419.69px 141.371px;" class="animable"></path></g><path d="M400.9,146.11l3.43,2V136.64l2.39,1.38.25-3.68-2.64-1.53v-2.18c0-.91.13-1.19.79-.81l1.85,1.07v-4l-2.37-1.38c-2.55-1.47-3.7-.63-3.7,2.23v3.06l-1.79-1v3.88l1.79,1Z" style="fill: rgb(255, 255, 255); transform-origin: 403.04px 136.454px;" id="elwu5gtlbc7ha" class="animable"></path><path d="M422.3,175.46l-20.55-11.87a7.1,7.1,0,0,0-6.38,0l-2.6,1.5a7.06,7.06,0,0,0-3.19,5.53v23.73a7,7,0,0,0,3.19,5.52l20.55,11.87a7.1,7.1,0,0,0,6.38,0l2.6-1.5a7.06,7.06,0,0,0,3.19-5.53V181A7.06,7.06,0,0,0,422.3,175.46Z" style="fill: rgb(33, 103, 233); transform-origin: 407.535px 187.665px;" id="elnp3p52lmdj" class="animable"></path><g id="eloscxdi52z5d"><path d="M422.3,175.46l-20.55-11.87a7.1,7.1,0,0,0-6.38,0l-2.6,1.5a7.06,7.06,0,0,0-3.19,5.53v23.73a7,7,0,0,0,3.19,5.52l20.55,11.87a7.1,7.1,0,0,0,6.38,0l2.6-1.5a7.06,7.06,0,0,0,3.19-5.53V181A7.06,7.06,0,0,0,422.3,175.46Z" style="fill: rgb(255, 255, 255); opacity: 0.8; transform-origin: 407.535px 187.665px;" class="animable"></path></g><path d="M389.58,170.62c0-2,1.43-2.86,3.19-1.84l20.55,11.86a7.06,7.06,0,0,1,3.19,5.53V209.9c0,2-1.43,2.85-3.19,1.84l-20.55-11.87a7,7,0,0,1-3.19-5.52Z" style="fill: rgb(33, 103, 233); transform-origin: 403.045px 190.258px;" id="elkod8deohhw" class="animable"></path><g id="el48hycy38jwi"><path d="M389.58,170.62c0-2,1.43-2.86,3.19-1.84l20.55,11.86a7.06,7.06,0,0,1,3.19,5.53V209.9c0,2-1.43,2.85-3.19,1.84l-20.55-11.87a7,7,0,0,1-3.19-5.52Z" style="fill: rgb(255, 255, 255); opacity: 0.7; transform-origin: 403.045px 190.258px;" class="animable"></path></g><path d="M425.49,204.71a7.06,7.06,0,0,1-3.19,5.53l-2.6,1.5a7.11,7.11,0,0,1-5.84.25c1.51.57,2.65-.28,2.65-2.09V186.17a6.61,6.61,0,0,0-.93-3.15l9-5.18a6.51,6.51,0,0,1,.94,3.14Z" style="fill: rgb(33, 103, 233); transform-origin: 419.69px 195.17px;" id="ell2g3go3vjn" class="animable"></path><g id="el9p5tqp6tbcn"><path d="M425.49,204.71a7.06,7.06,0,0,1-3.19,5.53l-2.6,1.5a7.11,7.11,0,0,1-5.84.25c1.51.57,2.65-.28,2.65-2.09V186.17a6.61,6.61,0,0,0-.93-3.15l9-5.18a6.51,6.51,0,0,1,.94,3.14Z" style="fill: rgb(255, 255, 255); opacity: 0.55; transform-origin: 419.69px 195.17px;" class="animable"></path></g><path d="M403,181.65c2.11,1.21,2.36,1.37,3.19,1.9a7.28,7.28,0,0,1,1.46,1.2,5.42,5.42,0,0,1,.9,1.31,6.35,6.35,0,0,1,.59,1.55,9.58,9.58,0,0,1,.28,2.11c0,1.12,0,1.46,0,4.26s0,3.14,0,4.22a5.8,5.8,0,0,1-.28,1.8,1.66,1.66,0,0,1-.59.86,1.23,1.23,0,0,1-.9.27,3.56,3.56,0,0,1-1.46-.49c-.83-.43-1.08-.56-3.19-1.77s-2.35-1.37-3.18-1.9a6.66,6.66,0,0,1-1.46-1.21,5.75,5.75,0,0,1-.91-1.31,7,7,0,0,1-.59-1.54,10.67,10.67,0,0,1-.27-2.11c0-1.13,0-1.47,0-4.27s0-3.13,0-4.22a6.24,6.24,0,0,1,.27-1.79,1.77,1.77,0,0,1,.59-.87,1.26,1.26,0,0,1,.91-.26,3.52,3.52,0,0,1,1.46.48c.83.43,1.08.56,3.18,1.78m0-1.89c-2.13-1.24-2.4-1.38-3.24-1.82a4.74,4.74,0,0,0-1.92-.61,2,2,0,0,0-1.39.4,2.68,2.68,0,0,0-.91,1.34,7.62,7.62,0,0,0-.36,2.34c0,1.1-.05,1.45-.05,4.3s0,3.21.05,4.36a12.52,12.52,0,0,0,.36,2.76,10.17,10.17,0,0,0,.91,2.38,9.52,9.52,0,0,0,1.39,2,9.17,9.17,0,0,0,1.92,1.59c.84.54,1.11.7,3.24,1.94s2.41,1.38,3.25,1.81a4.8,4.8,0,0,0,1.91.62,2,2,0,0,0,1.4-.41,2.64,2.64,0,0,0,.91-1.34,7.87,7.87,0,0,0,.36-2.33c0-1.1.05-1.45.05-4.31s0-3.21-.05-4.35a13.15,13.15,0,0,0-.36-2.76,10.23,10.23,0,0,0-.91-2.39,9.35,9.35,0,0,0-3.31-3.61c-.84-.53-1.11-.7-3.25-1.93" style="fill: rgb(255, 255, 255); transform-origin: 403.005px 190.25px;" id="elyc3vvsccx6" class="animable"></path><path d="M403,184.86c-2.23-1.29-4,.08-4,3.06s1.81,6.44,4,7.73,4-.08,4-3.06-1.81-6.44-4-7.73m0,8.9a6.3,6.3,0,0,1-2.62-5c0-1.93,1.17-2.82,2.62-2a6.27,6.27,0,0,1,2.63,5c0,1.94-1.18,2.82-2.63,2" style="fill: rgb(255, 255, 255); transform-origin: 403px 190.255px;" id="elymp2l4dxv0k" class="animable"></path><path d="M406.42,186.74a2.25,2.25,0,0,0,.95,1.81c.52.3.94,0,.94-.72a2.26,2.26,0,0,0-.94-1.8c-.53-.3-.95,0-.95.71" style="fill: rgb(255, 255, 255); transform-origin: 407.365px 187.29px;" id="el7ont1m8kk76" class="animable"></path></g></g><g id="freepik--Character--inject-7" class="animable" style="transform-origin: 192.527px 269.095px;"><g id="freepik--shadow--inject-7"><path d="M285.53,281.37l-41.68-24.06a5.45,5.45,0,0,0-5,0l-135,77.93c-1.38.8-1.38,2.08,0,2.88l41.68,24.06a5.51,5.51,0,0,0,5,0L165,353.86c.81,6.13,5.27,12.14,13.39,16.83,18,10.41,47.31,10.41,65.35,0s18.05-27.32,0-37.74c-8.12-4.69-18.51-7.26-29.14-7.73l71-41C286.91,283.45,286.91,282.16,285.53,281.37Z" style="opacity: 0.1; transform-origin: 194.694px 317.6px;" class="animable"></path></g><g id="freepik--Bench--inject-7" class="animable" style="transform-origin: 189.305px 266.394px;"><path d="M207.64,283.92a2.85,2.85,0,0,1-1.43-.39l-30.8-17.78a11,11,0,0,1-5.46-9.46V220.72a2.86,2.86,0,1,1,5.72,0v35.57a5.22,5.22,0,0,0,2.6,4.51l30.8,17.78a2.86,2.86,0,0,1-1.43,5.34Z" style="fill: rgb(33, 103, 233); transform-origin: 190.228px 250.89px;" id="elc1jl1g4h8p" class="animable"></path><path d="M144.76,319.42a2.85,2.85,0,0,1-1.43-.39l-30.8-17.78a11,11,0,0,1-5.46-9.46V256.22a2.86,2.86,0,1,1,5.72,0v35.57a5.22,5.22,0,0,0,2.6,4.51l30.8,17.78a2.86,2.86,0,0,1-1.43,5.34Z" style="fill: rgb(33, 103, 233); transform-origin: 127.348px 286.39px;" id="el1819nglecl4" class="animable"></path><path d="M268.36,248.15a2.84,2.84,0,0,1-1.42-.39L236.13,230a11,11,0,0,1-5.45-9.46V185a2.86,2.86,0,0,1,5.71,0v35.57A5.23,5.23,0,0,0,239,225l30.8,17.78a2.86,2.86,0,0,1-1.43,5.34Z" style="fill: rgb(33, 103, 233); transform-origin: 250.958px 215.229px;" id="elkqccpn46d2" class="animable"></path><path d="M150.09,315.87v40.71a1.6,1.6,0,0,1-1,1.32,5.08,5.08,0,0,1-4.59,0,1.6,1.6,0,0,1-1-1.32V315.87Z" style="fill: rgb(33, 103, 233); transform-origin: 146.795px 337.159px;" id="elnj48pbpnf6h" class="animable"></path><path d="M122.92,300.4v40.7a1.63,1.63,0,0,1-1,1.33,5.08,5.08,0,0,1-4.59,0,1.61,1.61,0,0,1-.95-1.33V300.4Z" style="fill: rgb(33, 103, 233); transform-origin: 119.65px 321.689px;" id="elamtxhtuqiwf" class="animable"></path><path d="M273.59,244.57v40.7a1.63,1.63,0,0,1-.95,1.33,5.1,5.1,0,0,1-4.6,0,1.63,1.63,0,0,1-1-1.33v-40.7Z" style="fill: rgb(33, 103, 233); transform-origin: 270.315px 265.859px;" id="elvjnsmyj1l4a" class="animable"></path><path d="M246.42,229.09V269.8a1.6,1.6,0,0,1-.95,1.32,5.1,5.1,0,0,1-4.6,0,1.6,1.6,0,0,1-1-1.32V229.09Z" style="fill: rgb(33, 103, 233); transform-origin: 243.145px 250.379px;" id="el6enq9kn5q25" class="animable"></path><g id="elgqwhfbbap75"><g style="opacity: 0.65; transform-origin: 190.33px 270.378px;" class="animable"><path d="M207.64,283.92a2.85,2.85,0,0,1-1.43-.39l-30.8-17.78a11,11,0,0,1-5.46-9.46V220.72a2.86,2.86,0,1,1,5.72,0v35.57a5.22,5.22,0,0,0,2.6,4.51l30.8,17.78a2.86,2.86,0,0,1-1.43,5.34Z" id="elm8zhrznc4m" class="animable" style="transform-origin: 190.228px 250.89px;"></path><path d="M144.76,319.42a2.85,2.85,0,0,1-1.43-.39l-30.8-17.78a11,11,0,0,1-5.46-9.46V256.22a2.86,2.86,0,1,1,5.72,0v35.57a5.22,5.22,0,0,0,2.6,4.51l30.8,17.78a2.86,2.86,0,0,1-1.43,5.34Z" id="elkox5kfft7j9" class="animable" style="transform-origin: 127.348px 286.39px;"></path><path d="M268.36,248.15a2.84,2.84,0,0,1-1.42-.39L236.13,230a11,11,0,0,1-5.45-9.46V185a2.86,2.86,0,0,1,5.71,0v35.57A5.23,5.23,0,0,0,239,225l30.8,17.78a2.86,2.86,0,0,1-1.43,5.34Z" id="ele7ji0l5aavd" class="animable" style="transform-origin: 250.958px 215.229px;"></path><path d="M150.09,315.87v40.71a1.6,1.6,0,0,1-1,1.32,5.08,5.08,0,0,1-4.59,0,1.6,1.6,0,0,1-1-1.32V315.87Z" id="elkeofdpwfr6g" class="animable" style="transform-origin: 146.795px 337.159px;"></path><path d="M122.92,300.4v40.7a1.63,1.63,0,0,1-1,1.33,5.08,5.08,0,0,1-4.59,0,1.61,1.61,0,0,1-.95-1.33V300.4Z" id="elzkb5gzwgra" class="animable" style="transform-origin: 119.65px 321.689px;"></path><path d="M273.59,244.57v40.7a1.63,1.63,0,0,1-.95,1.33,5.1,5.1,0,0,1-4.6,0,1.63,1.63,0,0,1-1-1.33v-40.7Z" id="elb7me7nk23x4" class="animable" style="transform-origin: 270.315px 265.859px;"></path><path d="M246.42,229.09V269.8a1.6,1.6,0,0,1-.95,1.32,5.1,5.1,0,0,1-4.6,0,1.6,1.6,0,0,1-1-1.32V229.09Z" id="ela20er4p2vf7" class="animable" style="transform-origin: 243.145px 250.379px;"></path></g></g><g id="freepik--Chair--inject-7" class="animable" style="transform-origin: 189.305px 250.796px;"><path d="M100.7,264.29l-.57-.33a3.63,3.63,0,0,1-1.65-2.85V256a3.66,3.66,0,0,1,1.65-2.86L235.9,174.73a3.69,3.69,0,0,1,3.3,0l.57.33a3.66,3.66,0,0,1,1.65,2.86v5.13a3.66,3.66,0,0,1-1.65,2.86L104,264.29A3.62,3.62,0,0,1,100.7,264.29Z" style="fill: rgb(33, 103, 233); transform-origin: 169.95px 219.514px;" id="ell4ndsbpohmn" class="animable"></path><g id="ellytnmp4556o"><path d="M239.77,177,104,255.35a3.66,3.66,0,0,0-1.65,2.86v5.13c0,1.05.74,1.48,1.65,1l135.77-78.38a3.66,3.66,0,0,0,1.65-2.86v-5.13C241.42,176.87,240.68,176.44,239.77,177Z" style="opacity: 0.5; transform-origin: 171.885px 220.645px;" class="animable"></path></g><g id="elycxto20jdyr"><path d="M239.77,175.06l-.57-.33a3.69,3.69,0,0,0-3.3,0L100.13,253.12A3.28,3.28,0,0,0,99,254.35l3.86,2.23a3.65,3.65,0,0,1,1.17-1.23L239.77,177c.91-.53,1.65-.1,1.65.95A3.66,3.66,0,0,0,239.77,175.06Z" style="opacity: 0.4; transform-origin: 170.21px 215.46px;" class="animable"></path></g><g id="elmv5fs5akzhj"><path d="M102.35,258.22a3.47,3.47,0,0,1,.48-1.63L99,254.35a3.67,3.67,0,0,0-.31.67,3.06,3.06,0,0,0-.18,1v5.13a3.71,3.71,0,0,0,1.65,2.86l.22.13.35.19.26.13.07,0,.23.08.14,0,.23.05.17,0,.23,0h.58l.27,0h.06a3.56,3.56,0,0,0,.68-.17l-.24,0h0a1.06,1.06,0,0,1-.26,0l-.08,0a.52.52,0,0,1-.16-.06l-.06,0-.14-.11,0,0a1.74,1.74,0,0,1-.11-.18l0-.05a1.73,1.73,0,0,1-.08-.27v0a1.94,1.94,0,0,1,0-.36Z" style="opacity: 0.6; transform-origin: 101.08px 259.47px;" class="animable"></path></g><path d="M100.7,280l-.57-.33a3.66,3.66,0,0,1-1.65-2.86v-5.13a3.63,3.63,0,0,1,1.65-2.85L235.9,190.41a3.62,3.62,0,0,1,3.3,0l.57.33a3.66,3.66,0,0,1,1.65,2.86v5.12a3.63,3.63,0,0,1-1.65,2.86L104,280A3.62,3.62,0,0,1,100.7,280Z" style="fill: rgb(33, 103, 233); transform-origin: 169.95px 235.205px;" id="elndsj9d4murm" class="animable"></path><g id="elqcv6qg0o75n"><path d="M239.77,192.65,104,271a3.66,3.66,0,0,0-1.65,2.86V279c0,1.05.74,1.48,1.65,1l135.77-78.38a3.66,3.66,0,0,0,1.65-2.86V193.6C241.42,192.55,240.68,192.12,239.77,192.65Z" style="opacity: 0.5; transform-origin: 171.885px 236.309px;" class="animable"></path></g><g id="elk9zcy1yj81r"><path d="M239.77,190.74l-.57-.33a3.69,3.69,0,0,0-3.3,0L100.13,268.8A3.28,3.28,0,0,0,99,270l3.86,2.23A3.65,3.65,0,0,1,104,271l135.77-78.38c.91-.53,1.65-.1,1.65.95A3.66,3.66,0,0,0,239.77,190.74Z" style="opacity: 0.4; transform-origin: 170.21px 231.125px;" class="animable"></path></g><g id="elixm92r47r7"><path d="M102.35,273.89a3.47,3.47,0,0,1,.48-1.63L99,270a3.39,3.39,0,0,0-.31.67,3,3,0,0,0-.18,1v5.12a3.38,3.38,0,0,0,.51,1.66,3.22,3.22,0,0,0,1.14,1.2l.22.13.35.2.26.12.07,0,.23.08.14.05.23,0a1,1,0,0,0,.17,0l.23,0h.58l.27,0h.06a3.57,3.57,0,0,0,.68-.18,1,1,0,0,1-.24.05h0a1.09,1.09,0,0,1-.26,0l-.08,0-.16-.06-.06-.05a.49.49,0,0,1-.14-.11l0-.05a.78.78,0,0,1-.11-.18l0,0a1.73,1.73,0,0,1-.08-.27h0a2,2,0,0,1,0-.36Z" style="opacity: 0.6; transform-origin: 101.08px 275.117px;" class="animable"></path></g><path d="M100.7,295.64l-.57-.32a3.66,3.66,0,0,1-1.65-2.86v-5.13a3.66,3.66,0,0,1,1.65-2.86L235.9,206.09a3.62,3.62,0,0,1,3.3,0l.57.32a3.66,3.66,0,0,1,1.65,2.86v5.13a3.66,3.66,0,0,1-1.65,2.86L104,295.64A3.62,3.62,0,0,1,100.7,295.64Z" style="fill: rgb(33, 103, 233); transform-origin: 169.95px 250.865px;" id="ellxe9zs6a32" class="animable"></path><g id="el1wc63r6sraq"><path d="M239.77,208.32,104,286.7a3.66,3.66,0,0,0-1.65,2.86v5.13c0,1.05.74,1.48,1.65.95l135.77-78.38a3.66,3.66,0,0,0,1.65-2.86v-5.13C241.42,208.22,240.68,207.79,239.77,208.32Z" style="opacity: 0.5; transform-origin: 171.885px 251.98px;" class="animable"></path></g><g id="eli4dztz1jfno"><path d="M239.77,206.41l-.57-.33a3.69,3.69,0,0,0-3.3,0L100.13,284.47A3.28,3.28,0,0,0,99,285.7l3.86,2.23A3.65,3.65,0,0,1,104,286.7l135.77-78.38c.91-.53,1.65-.1,1.65,1A3.66,3.66,0,0,0,239.77,206.41Z" style="opacity: 0.4; transform-origin: 170.21px 246.81px;" class="animable"></path></g><g id="elyswridbwz5n"><path d="M102.35,289.56a3.51,3.51,0,0,1,.48-1.63L99,285.7a3.67,3.67,0,0,0-.31.67,3,3,0,0,0-.18,1v5.13a3.41,3.41,0,0,0,.51,1.66,3.27,3.27,0,0,0,1.14,1.19l.22.13.35.2a1.23,1.23,0,0,0,.26.12l.07,0,.23.07.14.05.23.05.17,0,.23,0h.58l.27,0h.06a3,3,0,0,0,.68-.18,1,1,0,0,1-.24.05h0a.74.74,0,0,1-.26,0l-.08,0-.16-.06-.06,0a.81.81,0,0,1-.14-.12l0-.05a1,1,0,0,1-.11-.17l0-.05a2.29,2.29,0,0,1-.08-.28h0a2,2,0,0,1,0-.36Z" style="opacity: 0.6; transform-origin: 101.08px 290.835px;" class="animable"></path></g><path d="M133.31,320.78v.65a3.63,3.63,0,0,0,1.65,2.86l4.45,2.57a3.69,3.69,0,0,0,3.3,0l135.76-78.39a3.62,3.62,0,0,0,1.65-2.86V245a3.6,3.6,0,0,0-1.65-2.85L274,239.53a3.69,3.69,0,0,0-3.3,0L135,317.92A3.63,3.63,0,0,0,133.31,320.78Z" style="fill: rgb(33, 103, 233); transform-origin: 206.715px 283.195px;" id="eluqw7bbdxndi" class="animable"></path><g id="elc6sxpi3fyc5"><path d="M142.71,322.39,278.47,244a1,1,0,0,0,0-1.9L274,239.53a3.69,3.69,0,0,0-3.3,0L135,317.92a1,1,0,0,0,0,1.9l4.45,2.57A3.69,3.69,0,0,0,142.71,322.39Z" style="opacity: 0.4; transform-origin: 206.735px 280.955px;" class="animable"></path></g><g id="el57yfvgfl30p"><path d="M278.64,242.2c.74.53.68,1.31-.16,1.8L142.71,322.39a3.45,3.45,0,0,1-1.66.39v4.47a3.45,3.45,0,0,0,1.66-.39l135.77-78.39a3.68,3.68,0,0,0,1.65-2.86V245A3.67,3.67,0,0,0,278.64,242.2Z" style="opacity: 0.55; transform-origin: 210.59px 284.725px;" class="animable"></path></g><g id="elnktvivq4wsp"><path d="M139.4,322.39,135,319.82c-.79-.46-.89-1.17-.3-1.69a3.67,3.67,0,0,0-1.35,2.65v.65a3.74,3.74,0,0,0,1,2.35,3.05,3.05,0,0,0,.64.51l4.44,2.57a3.44,3.44,0,0,0,1.65.39v-4.47A3.44,3.44,0,0,1,139.4,322.39Z" style="opacity: 0.6; transform-origin: 137.215px 322.69px;" class="animable"></path></g><path d="M119.77,313v.65a3.63,3.63,0,0,0,1.65,2.86l4.44,2.57a3.69,3.69,0,0,0,3.3,0l135.77-78.39a3.66,3.66,0,0,0,1.65-2.86v-.66a3.63,3.63,0,0,0-1.65-2.85l-4.44-2.57a3.69,3.69,0,0,0-3.3,0L121.42,310.1A3.63,3.63,0,0,0,119.77,313Z" style="fill: rgb(33, 103, 233); transform-origin: 193.175px 275.415px;" id="eloj5o66di4es" class="animable"></path><g id="elltdging5ueb"><path d="M129.16,314.57l135.77-78.39a1,1,0,0,0,0-1.9l-4.44-2.57a3.69,3.69,0,0,0-3.3,0L121.42,310.1a1,1,0,0,0,0,1.9l4.44,2.57A3.69,3.69,0,0,0,129.16,314.57Z" style="opacity: 0.4; transform-origin: 193.175px 273.14px;" class="animable"></path></g><g id="el7jqfsw9yqq2"><path d="M265.1,234.38c.73.53.68,1.31-.17,1.8L129.16,314.57a3.44,3.44,0,0,1-1.65.39v4.47a3.44,3.44,0,0,0,1.65-.39l135.77-78.39a3.65,3.65,0,0,0,1.65-2.86v-.66A3.69,3.69,0,0,0,265.1,234.38Z" style="opacity: 0.55; transform-origin: 197.045px 276.905px;" class="animable"></path></g><g id="el3w0qtam232b"><path d="M125.86,314.57,121.42,312c-.8-.46-.9-1.17-.3-1.69a3.65,3.65,0,0,0-1.35,2.65v.65a3.72,3.72,0,0,0,1,2.35,3.1,3.1,0,0,0,.65.51l4.44,2.57a3.38,3.38,0,0,0,1.65.39V315A3.38,3.38,0,0,1,125.86,314.57Z" style="opacity: 0.6; transform-origin: 123.64px 314.87px;" class="animable"></path></g><path d="M106.22,305.14v.65a3.63,3.63,0,0,0,1.65,2.86l4.44,2.57a3.69,3.69,0,0,0,3.3,0l135.77-78.39A3.66,3.66,0,0,0,253,230v-.66a3.66,3.66,0,0,0-1.65-2.86l-4.44-2.56a3.69,3.69,0,0,0-3.3,0L107.87,302.28A3.63,3.63,0,0,0,106.22,305.14Z" style="fill: rgb(33, 103, 233); transform-origin: 179.61px 267.57px;" id="el9vrhied3rfc" class="animable"></path><g id="elr6vxzmtvr0k"><path d="M107.87,304.18l4.44,2.57a3.69,3.69,0,0,0,3.3,0l135.77-78.39a1,1,0,0,0,0-1.91l-4.44-2.56a3.69,3.69,0,0,0-3.3,0L107.87,302.28A1,1,0,0,0,107.87,304.18Z" style="opacity: 0.4; transform-origin: 179.633px 265.32px;" class="animable"></path></g><g id="el5en9n9fsgef"><path d="M251.55,226.56c.73.53.68,1.31-.17,1.8L115.61,306.75a3.41,3.41,0,0,1-1.65.39v4.47a3.41,3.41,0,0,0,1.65-.39l135.77-78.39A3.65,3.65,0,0,0,253,230v-.66A3.69,3.69,0,0,0,251.55,226.56Z" style="opacity: 0.55; transform-origin: 183.48px 269.085px;" class="animable"></path></g><g id="elpaa9nma2xh"><path d="M112.31,306.75l-4.44-2.57c-.8-.46-.89-1.17-.3-1.69a3.65,3.65,0,0,0-1.35,2.65v.65a3.73,3.73,0,0,0,1,2.34,3.09,3.09,0,0,0,.65.52l4.44,2.57a3.41,3.41,0,0,0,1.65.39v-4.47A3.41,3.41,0,0,1,112.31,306.75Z" style="opacity: 0.6; transform-origin: 110.09px 307.05px;" class="animable"></path></g><path d="M118.74,299.19a.56.56,0,0,0,0,1.07,2,2,0,0,0,1.86,0,.56.56,0,0,0,0-1.07A2.06,2.06,0,0,0,118.74,299.19Z" id="elgya01n8y5c8" class="animable" style="transform-origin: 119.67px 299.729px;"></path><path d="M132.32,307.07a.57.57,0,0,0,0,1.08,2.06,2.06,0,0,0,1.87,0,.57.57,0,0,0,0-1.08A2.06,2.06,0,0,0,132.32,307.07Z" id="elkz2cknzzh9" class="animable" style="transform-origin: 133.255px 307.61px;"></path><path d="M145.91,315a.56.56,0,0,0,0,1.07,2,2,0,0,0,1.86,0,.56.56,0,0,0,0-1.07A2.06,2.06,0,0,0,145.91,315Z" id="elnvi5exzwuyi" class="animable" style="transform-origin: 146.84px 315.539px;"></path><path d="M242.24,227.92a.57.57,0,0,0,0,1.08,2,2,0,0,0,1.86,0,.57.57,0,0,0,0-1.08A2.1,2.1,0,0,0,242.24,227.92Z" id="elawxzgs38pxt" class="animable" style="transform-origin: 243.17px 228.466px;"></path><path d="M255.82,235.81a.57.57,0,0,0,0,1.08,2.12,2.12,0,0,0,1.87,0,.57.57,0,0,0,0-1.08A2.06,2.06,0,0,0,255.82,235.81Z" id="el34xno3g6zi8" class="animable" style="transform-origin: 256.755px 236.346px;"></path><path d="M269.41,243.69a.57.57,0,0,0,0,1.08,2,2,0,0,0,1.86,0,.57.57,0,0,0,0-1.08A2.1,2.1,0,0,0,269.41,243.69Z" id="elt87trs5qep" class="animable" style="transform-origin: 270.34px 244.236px;"></path><path d="M181.51,263.69a.57.57,0,0,0,0,1.08,2.06,2.06,0,0,0,1.87,0,.57.57,0,0,0,0-1.08A2.12,2.12,0,0,0,181.51,263.69Z" id="elqw0wo4gx80l" class="animable" style="transform-origin: 182.445px 264.234px;"></path><path d="M195.1,271.58a.57.57,0,0,0,0,1.08,2.1,2.1,0,0,0,1.86,0,.57.57,0,0,0,0-1.08A2.06,2.06,0,0,0,195.1,271.58Z" id="ellkvq66v7r" class="animable" style="transform-origin: 196.03px 272.118px;"></path><path d="M208.68,279.46a.57.57,0,0,0,0,1.08,2.06,2.06,0,0,0,1.87,0,.57.57,0,0,0,0-1.08A2.12,2.12,0,0,0,208.68,279.46Z" id="eld06rnqbbhf" class="animable" style="transform-origin: 209.615px 280.004px;"></path><path d="M109.93,255a2.32,2.32,0,0,0-1.06,1.84c0,.67.47,1,1.06.61a2.36,2.36,0,0,0,1.06-1.84C111,254.93,110.51,254.66,109.93,255Z" id="el8pcdf1idl45" class="animable" style="transform-origin: 109.93px 256.235px;"></path><path d="M109.93,270.64a2.33,2.33,0,0,0-1.06,1.84c0,.68.47.95,1.06.61a2.36,2.36,0,0,0,1.06-1.84C111,270.57,110.51,270.3,109.93,270.64Z" id="elgu8c5vkbvr4" class="animable" style="transform-origin: 109.93px 271.865px;"></path><path d="M109.93,286.28a2.33,2.33,0,0,0-1.06,1.84c0,.68.47.95,1.06.61a2.35,2.35,0,0,0,1.06-1.84C111,286.22,110.51,285.94,109.93,286.28Z" id="eljlbq58i89co" class="animable" style="transform-origin: 109.93px 287.506px;"></path><path d="M233.53,183.77a2.35,2.35,0,0,0-1.06,1.84c0,.67.48.95,1.06.61a2.35,2.35,0,0,0,1.07-1.84C234.6,183.7,234.12,183.43,233.53,183.77Z" id="elhlif4fxmty6" class="animable" style="transform-origin: 233.535px 184.994px;"></path><path d="M233.53,199.41a2.36,2.36,0,0,0-1.06,1.84c0,.68.48.95,1.06.61A2.35,2.35,0,0,0,234.6,200C234.6,199.34,234.12,199.07,233.53,199.41Z" id="elln8uqe3yv" class="animable" style="transform-origin: 233.535px 200.635px;"></path><path d="M233.53,215.05a2.36,2.36,0,0,0-1.06,1.84c0,.68.48,1,1.06.61a2.33,2.33,0,0,0,1.07-1.84C234.6,215,234.12,214.71,233.53,215.05Z" id="el68wd3o780gv" class="animable" style="transform-origin: 233.535px 216.288px;"></path><path d="M172.81,219.53a2.35,2.35,0,0,0-1.06,1.84c0,.68.47,1,1.06.62a2.33,2.33,0,0,0,1.06-1.84C173.87,219.47,173.4,219.2,172.81,219.53Z" id="elh6ge19tn5fh" class="animable" style="transform-origin: 172.81px 220.771px;"></path><path d="M172.81,235.18a2.33,2.33,0,0,0-1.06,1.84c0,.67.47.95,1.06.61a2.33,2.33,0,0,0,1.06-1.84C173.87,235.11,173.4,234.84,172.81,235.18Z" id="elbyly1br1rep" class="animable" style="transform-origin: 172.81px 236.404px;"></path><path d="M172.81,250.82a2.33,2.33,0,0,0-1.06,1.84c0,.68.47,1,1.06.61a2.33,2.33,0,0,0,1.06-1.84C173.87,250.76,173.4,250.48,172.81,250.82Z" id="el9fti0aqrkyl" class="animable" style="transform-origin: 172.81px 252.057px;"></path></g></g><g id="freepik--character--inject-7" class="animable" style="transform-origin: 178.091px 266.193px;"><path d="M163,205.33c10.28-.7,13.14,2.42,19.92,7.58,4.81,3.66,12.7,9.27,12.7,9.27s5.27-17.15,5.15-19.43c-.14-2.74-1.35-3.61-2-6.47s-.7-4.83-1.5-6,1.59-1.64,2.7-.21,1.38,3.55,2,3.11.76-5-.08-8.28.94-4.25,1.7-3.26a9.55,9.55,0,0,1,1.07,1.7A4.3,4.3,0,0,1,209,184c1.84,1.75,3.6,4.43,4,9.31s-1.78,8.75-2.28,10.93c-.73,3.24-1.5,21-5.38,30.55-1.77,4.35-5.56,4.3-9,2.38L174.4,224.9C167.84,221.71,159.49,210.12,163,205.33Z" style="fill: rgb(255, 168, 167); transform-origin: 187.609px 209.842px;" id="elk8zpb3fii3e" class="animable"></path><path d="M164.53,205.25a13.54,13.54,0,0,1,10.52,1.67c5.35,3.31,20.19,14.56,20.19,14.56s2.79-7.58,3.2-9c0,0,5.62,3.47,11.05,2.24,0,0-1,12.91-3,18.69s-4.1,5.95-8.13,5-26.52-13.35-26.52-13.35Z" style="fill: rgb(33, 103, 233); transform-origin: 187.01px 221.843px;" id="elimzjuw4j2b" class="animable"></path><g id="el1gjw0npuh01"><path d="M164.53,205.25a13.54,13.54,0,0,1,10.52,1.67c5.35,3.31,20.19,14.56,20.19,14.56s2.79-7.58,3.2-9c0,0,5.62,3.47,11.05,2.24,0,0-1,12.91-3,18.69s-4.1,5.95-8.13,5-26.52-13.35-26.52-13.35Z" style="opacity: 0.1; transform-origin: 187.01px 221.843px;" class="animable"></path></g><path d="M192.06,339.71s2.79,11,4.67,14.39A54,54,0,0,0,204.15,365c.71.79,2.31,2.25,2.89,2.88a1.26,1.26,0,0,1-.1,1.93c-1.39,1.38-7.37,1.8-10.77-.65s-6.26-6.54-8.3-8.53c-1-1-2-1.94-2.68-2.64a2.74,2.74,0,0,1-.72-2.58c.07-.26.14-.57.22-.93.71-3.24-3.17-11.44-3.17-11.44C184.34,339,188.42,339.12,192.06,339.71Z" style="fill: rgb(255, 168, 167); transform-origin: 194.481px 355.164px;" id="elssh4p4m4zr" class="animable"></path><path d="M184.29,358.68a3.17,3.17,0,0,0,.19,1.63c.33.74,2.45,2,3.54,2.55a6.73,6.73,0,0,1,2.92,2.91,14.06,14.06,0,0,0,5.84,5.62,17.64,17.64,0,0,0,10.49.88c4.36-.87,4.66-3.46,4.66-3.46s.19-2.43-.91-2.79S184.29,358.68,184.29,358.68Z" style="fill: rgb(38, 50, 56); transform-origin: 198.099px 365.686px;" id="elfb6z88eb26" class="animable"></path><path d="M184.12,351.19a5.26,5.26,0,0,1-.05,1.17c-.11,1.2-.21,2-.25,3.34a6.78,6.78,0,0,0,.47,3c1.32,1.77,4.38,2.29,6.19,4.7s4,6.13,9.73,7.16,10.07-.89,11.1-2.54,0-3.17-3.69-5.08c-3.94-2-8.68-7.56-8.69-7.57-.47-.55-.89-1.18-1.32-1.77a8.22,8.22,0,0,1-1.28-2.17,9.32,9.32,0,0,1-.46-2.57.37.37,0,0,0-.06-.21.35.35,0,0,0-.2-.07,9.91,9.91,0,0,0-6.13,1.43,1.46,1.46,0,0,0-.5.42,1.81,1.81,0,0,0-.2.5c-.12.46-.25.92-.37,1.38a1.31,1.31,0,0,1-.58.93c-.42.19-.89-.11-1.25-.39s-.61-.94-1-1.25A2,2,0,0,0,184.12,351.19Z" style="fill: rgb(69, 90, 100); transform-origin: 197.745px 359.693px;" id="elea4f9gakynq" class="animable"></path><path d="M196.46,369.24a7.31,7.31,0,0,1,4.13-6.31c4.28-2.29,6.93-.92,8.28,0,1.59,1.1,3.89,3.42,2.56,5.17s-3.79,2.81-8.2,2.95A10.55,10.55,0,0,1,196.46,369.24Z" style="fill: rgb(250, 250, 250); transform-origin: 204.144px 366.379px;" id="eln6dwdqjigfm" class="animable"></path><path d="M133.91,261.34c0,4.82.48,20.69,5.45,26.89,3.25,4,5.8,5.65,13.62,11,8.53,5.87,9.65,6.94,11.74,8.43a10.74,10.74,0,0,1,4.73,6.82c.73,3.82,1.42,7.59,5.15,15.5,2.93,6.22,6.19,11.91,7.84,15.06,2.48.43,8.67-.76,10.29-2.86-.9-4.71-6-38.09-8.23-43s-19.59-19.8-19.59-19.8-1.37-9,0-14.83Z" style="fill: rgb(55, 71, 79); transform-origin: 163.32px 303.234px;" id="elyl16c9n748" class="animable"></path><path d="M219.74,325.62s2.79,10.95,4.67,14.39a53.58,53.58,0,0,0,7.42,10.86c.7.79,2.3,2.25,2.88,2.88a1.25,1.25,0,0,1-.1,1.93c-1.39,1.38-7.37,1.81-10.77-.65s-6.26-6.54-8.29-8.53c-1-1-2-1.94-2.68-2.64a2.71,2.71,0,0,1-.72-2.58l.21-.93c.72-3.24-3.16-11.44-3.16-11.44C212,324.87,216.1,325,219.74,325.62Z" style="fill: rgb(255, 168, 167); transform-origin: 222.159px 341.045px;" id="el0bat6kxp87bl" class="animable"></path><path d="M212,344.59a3.3,3.3,0,0,0,.19,1.63c.33.74,2.46,2,3.54,2.55a6.79,6.79,0,0,1,2.93,2.91,14.12,14.12,0,0,0,5.83,5.63,17.74,17.74,0,0,0,10.49.87c4.36-.87,4.67-3.46,4.67-3.46s.18-2.43-.92-2.79S212,344.59,212,344.59Z" style="fill: rgb(38, 50, 56); transform-origin: 225.815px 351.596px;" id="elocgwmqjodm" class="animable"></path><path d="M211.79,337.1a5.22,5.22,0,0,1,0,1.17c-.12,1.21-.21,2-.26,3.34a6.78,6.78,0,0,0,.47,3c1.32,1.77,4.38,2.3,6.19,4.7s4,6.13,9.73,7.16,10.07-.88,11.1-2.54,0-3.17-3.68-5.08c-4-2-8.69-7.56-8.69-7.57-.48-.55-.9-1.18-1.33-1.77a8.46,8.46,0,0,1-1.27-2.17,9.33,9.33,0,0,1-.47-2.57.31.31,0,0,0-.06-.21.35.35,0,0,0-.2-.07,10,10,0,0,0-6.13,1.43,1.42,1.42,0,0,0-.49.42,1.54,1.54,0,0,0-.2.5c-.13.46-.25.92-.38,1.39s-.23.77-.58.92-.88-.11-1.25-.39-.61-.94-1-1.24A2,2,0,0,0,211.79,337.1Z" style="fill: rgb(69, 90, 100); transform-origin: 225.455px 345.605px;" id="el7y5ezqj42m5" class="animable"></path><path d="M224.14,355.15a7.28,7.28,0,0,1,4.12-6.31c4.28-2.29,6.94-.92,8.28,0,1.6,1.1,3.9,3.42,2.56,5.17s-3.79,2.81-8.2,3A10.5,10.5,0,0,1,224.14,355.15Z" style="fill: rgb(250, 250, 250); transform-origin: 231.821px 352.311px;" id="el5q2ukuze39i" class="animable"></path><path d="M136,264.64c-1,5.87,26.5,17.69,26.5,17.69s3.77,1.41,11.47,5.17a179.38,179.38,0,0,1,17.89,9.69c2.17,1.34,3.87,2.09,4.5,5.36.73,3.82.4,5.51,5.24,14.51,3.25,6.06,6.88,10.78,8.53,13.93,2.48.43,8.67-.76,10.29-2.86-.89-4.71-6-38.09-8.23-43s-35.91-24.3-35.91-24.3Z" style="fill: rgb(55, 71, 79); transform-origin: 178.197px 295.954px;" id="elhqqly64wrh5" class="animable"></path><path d="M174.14,287.59l-6.76-9.14s7.33-4.42,8.87-12.29a16.13,16.13,0,0,1-5.89,12.39Z" style="fill: rgb(38, 50, 56); transform-origin: 171.815px 276.875px;" id="ell5a4jc9gumb" class="animable"></path><path d="M149,205.11c-8.6,1.59-14.33,3.44-15.95,5-3.65,7.49,1.78,37.63,1.78,37.63l-1.17,6.69-2.06,11.72c9.29,7.85,39.55,5.62,44.62-5.37,0,0,0-34.66-.69-41-.73-7.29-4.69-14.92-14.43-15.49Z" style="fill: rgb(245, 245, 245); transform-origin: 153.91px 237.553px;" id="elci16ri776ds" class="animable"></path><path d="M142.78,263c-2.49-3.82-2.92-13.55-2.92-13.55s.26-25.3-.74-31.33l-7.05,9.47a195.5,195.5,0,0,0,2.8,20.13l-1.17,6.69-1.37,7.81-.69,3.91c.27.23.57.44.87.66l.31.19c.21.14.43.28.66.41l.39.22.68.35.43.2.75.32.42.17,1,.34.28.1,1.32.38.37.09,1,.25.53.1c.3.07.61.13.92.18l.57.1.95.14.57.08c.35.05.71.08,1.06.12l.49.05c.52.05,1,.09,1.57.12H147c.45,0,.9.05,1.36.06h2.28l1,0,.67,0,1-.06.63,0,1.22-.1.41,0c.53,0,1.06-.12,1.59-.19l.56-.08,1.05-.15.65-.12.93-.17.67-.14.9-.2.65-.15.94-.25.56-.15c.47-.13.94-.28,1.4-.43l.41-.14,1-.35.55-.22.78-.32.56-.25.72-.34.52-.26.7-.39.46-.26c.29-.17.56-.35.82-.53l.26-.16h0C158.58,269.78,145.26,266.85,142.78,263Z" style="fill: rgb(235, 235, 235); transform-origin: 151.945px 244.44px;" id="elnlxan3m0qkl" class="animable"></path><path d="M147.7,179.68a12.66,12.66,0,0,0,12.4,12.91c6.84,0,10.9-5.94,12.39-12.91,2.74-12.75-5.55-12.91-12.39-12.91A12.66,12.66,0,0,0,147.7,179.68Z" style="fill: rgb(38, 50, 56); transform-origin: 160.362px 179.68px;" id="elrmnhk3eyghr" class="animable"></path><path d="M141.38,184.9s1.9,9.31,2.66,10.84a4.08,4.08,0,0,0,2.34,2l-.13-6.55Z" style="fill: rgb(38, 50, 56); transform-origin: 143.88px 191.32px;" id="elkrp0wxnuza" class="animable"></path><path d="M143.76,171.58s-1.36-.34-2.81,1.92c-1.24,1.94-1.52,6.29.43,11.4l3.58.43Z" style="fill: rgb(38, 50, 56); transform-origin: 142.464px 178.446px;" id="el4nmzc1nmj8" class="animable"></path><path d="M142.45,173.46l-4.39.08a2.06,2.06,0,0,1,2-2.32A2.44,2.44,0,0,1,142.45,173.46Z" style="fill: rgb(38, 50, 56); transform-origin: 140.247px 172.38px;" id="el0d6hsxrunds" class="animable"></path><path d="M141.91,172.42l-3.26-3.13a2.11,2.11,0,0,1,3.09-.12A2.4,2.4,0,0,1,141.91,172.42Z" style="fill: rgb(38, 50, 56); transform-origin: 140.557px 170.487px;" id="el0am4jidc72nr" class="animable"></path><path d="M146,185.34c-.72.44-1.74-1-2.63-2s-3.66-1.88-5.1,1.29,1,6.29,3.08,7.32c3.69,1.84,4.87-.84,4.87-.84l.3,14.74c1.84,5.1,15.78,6.09,12.76-.39V201a23.7,23.7,0,0,0,5.28.28c2.89-.47,4.7-2.84,5.58-6.09,1.4-5.22,1.94-9.44.74-19.71-1.3-11.26-13.88-11.38-20.67-6.93S146,185.34,146,185.34Z" style="fill: rgb(255, 168, 167); transform-origin: 154.69px 187.909px;" id="elbvfdg5djm6e" class="animable"></path><path d="M161.71,173.74c-3-.3-6-.91-9-1.13a5.74,5.74,0,0,0-1.94.09c-2.31.62-2,3.3-2.38,5.18-.63,3.22-1.15,8.69-2.37,8.71-.36,0-1.73-2.36-2.63-3.21a4.79,4.79,0,0,1-.8-2.46c-.23-1.34-.35-2.7-.45-4-.09-1.14-.2-2.3-.2-3.45a16.1,16.1,0,0,1,.3-3.86,6.8,6.8,0,0,1,1.61-2.89l.23-.25a15.22,15.22,0,0,1,5.37-3.62,32.4,32.4,0,0,1,9.1-2,92.69,92.69,0,0,0,9.27-1.12,1,1,0,0,1,.54,0,.85.85,0,0,1,.43.68,3.82,3.82,0,0,1-1.55,3.78c2.07.16,4.46-.92,6.46-1.46a1.33,1.33,0,0,1,1,0,1.12,1.12,0,0,1,.4.59,3.71,3.71,0,0,1,.05,1.66,9.56,9.56,0,0,1-1.78,4.55,11.21,11.21,0,0,1-6.2,4.05A18,18,0,0,1,161.71,173.74Z" style="fill: rgb(38, 50, 56); transform-origin: 158.573px 173.141px;" id="elofi2znben9o" class="animable"></path><path d="M159.3,201s-6.44-1.35-8.69-2.6a7.64,7.64,0,0,1-3.12-3.21,10.92,10.92,0,0,0,1.77,3.78c1.65,2.2,10,3.81,10,3.81Z" style="fill: rgb(242, 143, 143); transform-origin: 153.395px 198.985px;" id="elhw4sgb2o3jl" class="animable"></path><path d="M157.75,183.66a1.29,1.29,0,1,1-1.29-1.4A1.34,1.34,0,0,1,157.75,183.66Z" style="fill: rgb(38, 50, 56); transform-origin: 156.463px 183.55px;" id="elum5uvd5z36l" class="animable"></path><path d="M155.68,178.09l-2.76,1.59a1.76,1.76,0,0,1,.64-2.29A1.52,1.52,0,0,1,155.68,178.09Z" style="fill: rgb(38, 50, 56); transform-origin: 154.205px 178.44px;" id="elze3wo8qq6y" class="animable"></path><path d="M158.71,192.94l2.95,1.15a1.53,1.53,0,0,1-2,1A1.74,1.74,0,0,1,158.71,192.94Z" style="fill: rgb(242, 143, 143); transform-origin: 160.139px 194.063px;" id="el985ie8dbshu" class="animable"></path><path d="M169.59,179.28l-2.52-2a1.49,1.49,0,0,1,2.19-.35A1.8,1.8,0,0,1,169.59,179.28Z" style="fill: rgb(38, 50, 56); transform-origin: 168.477px 177.939px;" id="elw0x4ixtdpr" class="animable"></path><path d="M168.48,183.28a1.29,1.29,0,1,1-1.29-1.4A1.34,1.34,0,0,1,168.48,183.28Z" style="fill: rgb(38, 50, 56); transform-origin: 167.193px 183.17px;" id="eluseb2j7zgs" class="animable"></path><polygon points="161.57 182.2 161.72 190.35 166.35 189.29 161.57 182.2" style="fill: rgb(242, 143, 143); transform-origin: 163.96px 186.275px;" id="elg5pmd398u8n" class="animable"></polygon><path d="M137,208.11c-7.87,1.36-11.26,3.54-13.25,12.24-1.13,4.93-5.92,24-6.38,30.08-.34,4.43,8.88,26.6,14.63,34.92,5.09,7.37,7.45,9.2,11.3,10s10.11-2.59,8.14-5.25-7.11-6.37-7.19-6.61,3.08,1.22,5.05,1.43,2.92-.42,3.05-1.43-.82-.84-2.71-1.52-4.71-3.5-6.68-4.37a10.15,10.15,0,0,1-5.39-4.65c-1.37-2.6-6.4-23.5-6.4-23.5l5.61-19.6S142,215.9,137,208.11Z" style="fill: rgb(255, 168, 167); transform-origin: 134.861px 251.79px;" id="elaltxb7giq9u" class="animable"></path><path d="M137.85,207.82s-8.9-.24-12.09,5-9.63,36.11-9.22,38.41,7.78,19.56,7.78,19.56a20.73,20.73,0,0,1,11.11-4.66l-3.79-16.68,7.31-25S141.59,214.33,137.85,207.82Z" style="fill: rgb(33, 103, 233); transform-origin: 128.188px 239.304px;" id="elnoqtsnj6bgp" class="animable"></path><g id="eldwah6vkzdqt"><path d="M137.85,207.82s-8.9-.24-12.09,5-9.63,36.11-9.22,38.41,7.78,19.56,7.78,19.56a20.73,20.73,0,0,1,11.11-4.66l-3.79-16.68,7.31-25S141.59,214.33,137.85,207.82Z" style="opacity: 0.1; transform-origin: 128.188px 239.304px;" class="animable"></path></g></g></g><defs>     <filter id="active" height="200%">         <feMorphology in="SourceAlpha" result="DILATED" operator="dilate" radius="2"></feMorphology>                <feFlood flood-color="#32DFEC" flood-opacity="1" result="PINK"></feFlood>        <feComposite in="PINK" in2="DILATED" operator="in" result="OUTLINE"></feComposite>        <feMerge>            <feMergeNode in="OUTLINE"></feMergeNode>            <feMergeNode in="SourceGraphic"></feMergeNode>        </feMerge>    </filter>    <filter id="hover" height="200%">        <feMorphology in="SourceAlpha" result="DILATED" operator="dilate" radius="2"></feMorphology>                <feFlood flood-color="#ff0000" flood-opacity="0.5" result="PINK"></feFlood>        <feComposite in="PINK" in2="DILATED" operator="in" result="OUTLINE"></feComposite>        <feMerge>            <feMergeNode in="OUTLINE"></feMergeNode>            <feMergeNode in="SourceGraphic"></feMergeNode>        </feMerge>            <feColorMatrix type="matrix" values="0   0   0   0   0                0   1   0   0   0                0   0   0   0   0                0   0   0   1   0 "></feColorMatrix>    </filter></defs></svg>